<svg xmlns="http://www.w3.org/2000/svg" viewBox="0 0 120 120">
  <defs>
    <linearGradient id="trashGradient" x1="0%" y1="0%" x2="0%" y2="100%">
      <stop offset="0%" style="stop-color:#F5F5F5;stop-opacity:1" />
      <stop offset="100%" style="stop-color:#D0D0D0;stop-opacity:1" />
    </linearGradient>
    <radialGradient id="innerGradient" cx="50%" cy="50%" r="50%">
      <stop offset="0%" style="stop-color:#FAFAFA;stop-opacity:1" />
      <stop offset="100%" style="stop-color:#E8E8E8;stop-opacity:1" />
    </radialGradient>
  </defs>

  <!-- Trash can body -->
  <path d="M 30 35 L 35 100 C 35 105 38 110 43 110 L 77 110 C 82 110 85 105 85 100 L 90 35 Z"
        fill="url(#trashGradient)" stroke="#B0B0B0" stroke-width="1"/>

  <!-- Inner lighter area -->
  <path d="M 35 40 L 38 95 C 38 98 40 100 43 100 L 77 100 C 80 100 82 98 82 95 L 85 40 Z"
        fill="url(#innerGradient)" opacity="0.9"/>

  <!-- Lid -->
  <rect x="25" y="28" width="70" height="8" rx="2" fill="#E0E0E0" stroke="#B0B0B0" stroke-width="1"/>

  <!-- Handle -->
  <rect x="45" y="20" width="30" height="6" rx="3" fill="#C8C8C8"/>

  <!-- Vertical lines on trash -->
  <line x1="50" y1="45" x2="48" y2="90" stroke="#C0C0C0" stroke-width="2" stroke-linecap="round"/>
  <line x1="60" y1="45" x2="60" y2="90" stroke="#C0C0C0" stroke-width="2" stroke-linecap="round"/>
  <line x1="70" y1="45" x2="72" y2="90" stroke="#C0C0C0" stroke-width="2" stroke-linecap="round"/>
</svg>
